<svg id="Capa_1" data-name="Capa 1" xmlns="http://www.w3.org/2000/svg" xmlns:xlink="http://www.w3.org/1999/xlink" viewBox="0 0 1920 1080"><defs><style>.cls-1,.cls-3{fill:none;}.cls-2{fill:#000a2d;}.cls-3{stroke:#ff5a32;stroke-miterlimit:10;stroke-width:1.71px;}.cls-4,.cls-5{fill:#ff5a32;}.cls-5{font-size:17.14px;font-family:Kobenhavn-SemiBold, Kobenhavn;font-weight:600;}.cls-6{clip-path:url(#clip-path);}</style><clipPath id="clip-path"><rect class="cls-1" x="0.11" width="1919.78" height="1078.74"/></clipPath></defs><rect class="cls-2" width="1920" height="1080"/><path id="Pyramid_2" data-name="Pyramid 2" class="cls-3" d="M1576.87,420.92l91.92-78.85m0,0,48.94,107.87m0,0-78.62-34.29-62.24,5.27m62.24-5.27,29.68-73.58m-91.92,78.85,75.21,30.23,65.65-1.21"/><path id="Pyramid_2-2" data-name="Pyramid 2" class="cls-3" d="M54,292.79,146,213.94m0,0,48.94,107.88m0,0-78.61-34.29L54,292.79m62.25-5.26L146,213.94M54,292.79,129.24,323l65.65-1.2"/><ellipse class="cls-3" cx="660.35" cy="531.49" rx="283.75" ry="92.46" transform="translate(-161.62 324.34) rotate(-24.68)"/><ellipse class="cls-3" cx="641.24" cy="489.91" rx="283.75" ry="92.46" transform="translate(-146 312.56) rotate(-24.68)"/><ellipse class="cls-3" cx="618.76" cy="452.13" rx="283.75" ry="92.46" transform="translate(-132.28 299.72) rotate(-24.68)"/><ellipse class="cls-3" cx="1562.76" cy="137.21" rx="70.96" ry="34.21" transform="translate(64.34 601.75) rotate(-22.24)"/><path class="cls-4" d="M592.7,492.21,573.91,517.9a2.22,2.22,0,0,0,0,2.28.92.92,0,0,0,1.57.08l16.92-23.13v92.61c0,.89.5,1.61,1.11,1.61s1.1-.72,1.1-1.61V497.13l16.92,23.13a.92.92,0,0,0,1.57-.08,2.18,2.18,0,0,0,0-2.28l-18.78-25.69a.92.92,0,0,0-1.52,0Z"/><text class="cls-5" transform="matrix(0.85, -0.53, 0.53, 0.85, 525.91, 624.15)">A</text><text class="cls-5" transform="matrix(0.93, -0.36, 0.36, 0.93, 535.09, 618.56)">P</text><text class="cls-5" transform="matrix(0.98, -0.18, 0.18, 0.98, 544.72, 614.98)">P</text><text class="cls-5" transform="translate(554.81 613.23) rotate(0.93)">G</text><text class="cls-5" transform="matrix(0.98, 0.21, -0.21, 0.98, 565.99, 613.54)">R</text><text class="cls-5" transform="translate(576.37 615.88) rotate(23.89)">O</text><text class="cls-5" transform="matrix(0.8, 0.61, -0.61, 0.8, 586.69, 620.38)">W</text><text class="cls-5" transform="translate(598.01 629.52) rotate(49.4)">T</text><text class="cls-5" transform="matrix(0.5, 0.87, -0.87, 0.5, 603.81, 636.27)">H</text><text class="cls-5" transform="translate(609.32 646.58) rotate(68.79)"> </text><text class="cls-5" transform="matrix(0.27, 0.96, -0.96, 0.27, 611.08, 651.22)">·</text><text class="cls-5" transform="matrix(0.17, 0.99, -0.99, 0.17, 612.56, 656.96)"> </text><text class="cls-5" transform="matrix(0.03, 1, -1, 0.03, 613.5, 661.74)">A</text><text class="cls-5" transform="translate(613.66 672.5) rotate(99.36)">P</text><text class="cls-5" transform="translate(611.88 682.6) rotate(110.15)">P</text><text class="cls-5" transform="translate(608.26 692.22) rotate(121.41)">G</text><text class="cls-5" transform="translate(602.34 701.66) rotate(132.82)">R</text><text class="cls-5" transform="translate(595.06 709.41) rotate(144.24)">O</text><text class="cls-5" transform="translate(585.95 716.06) rotate(157.64)">W</text><text class="cls-5" transform="translate(572.34 721.19) rotate(169.94)">T</text><text class="cls-5" transform="translate(563.58 722.79) rotate(-179.07)">H</text><text class="cls-5" transform="translate(551.92 722.29) rotate(-170.84)"> </text><text class="cls-5" transform="translate(547.01 721.45) rotate(-165.08)">·</text><text class="cls-5" transform="translate(541.29 719.82) rotate(-159.32)"> </text><text class="cls-5" transform="translate(536.69 718.21) rotate(-151.05)">A</text><text class="cls-5" transform="matrix(-0.77, -0.64, 0.64, -0.77, 527.38, 712.91)">P</text><text class="cls-5" transform="matrix(-0.64, -0.77, 0.77, -0.64, 519.56, 706.22)">P</text><text class="cls-5" transform="translate(513.09 698.25) rotate(-118.25)">G</text><text class="cls-5" transform="translate(507.95 688.39) rotate(-106.74)">R</text><text class="cls-5" transform="matrix(-0.09, -1, 1, -0.09, 504.95, 678.17)">O</text><text class="cls-5" transform="translate(503.85 666.94) rotate(-81.97)">W</text><text class="cls-5" transform="translate(506.31 652.59) rotate(-69.67)">T</text><text class="cls-5" transform="translate(509.38 644.27) rotate(-58.93)">H</text><text class="cls-5" transform="translate(515.72 634.44) rotate(-50.3)"> </text><text class="cls-5" transform="matrix(0.71, -0.7, 0.7, 0.71, 518.93, 630.65)">·</text><path class="cls-4" d="M1298.81,476.56c1.1-9.07,1.27-13.64,5.24-16.25,2.83-1.36,7-1.66,13.41-2.4-7.89-1-12.47-1.19-15.2-3.6-2.3-2.75-2.55-7.31-3.45-15.05h0c-.84,6.86-1.12,11.22-2.76,14-2.69,3.5-7.34,3.83-15.89,4.62,8.41,1,13,1.24,15.65,4.44,2,2.83,2.35,7.22,3,14.21"/><path class="cls-4" d="M1298.81,524c1.1-9.06,1.27-13.64,5.24-16.24,2.83-1.37,7-1.66,13.41-2.4-7.89-1-12.47-1.19-15.2-3.6-2.3-2.75-2.55-7.32-3.45-15.05h0c-.84,6.86-1.12,11.21-2.76,14-2.69,3.49-7.34,3.83-15.89,4.62,8.41,1,13,1.23,15.65,4.44,2,2.83,2.35,7.22,3,14.2"/><path class="cls-4" d="M1298.81,570.13c1.1-9.06,1.27-13.64,5.24-16.24,2.83-1.37,7-1.66,13.41-2.4-7.89-1-12.47-1.19-15.2-3.6-2.3-2.75-2.55-7.32-3.45-15h0c-.84,6.86-1.12,11.21-2.76,14-2.69,3.49-7.34,3.83-15.89,4.62,8.41,1,13,1.23,15.65,4.44,2,2.83,2.35,7.22,3,14.2"/><g class="cls-6"><path id="Cube_5" data-name="Cube 5" class="cls-3" d="M409.41,1092.52l-24.61-33.15-25.31-34.12m59.17,46.92-23.25-31.77-23.89-32.65m5.11,101.4-24.33-31.94-25-32.84m18.42,80.47-24-30.81L297,1062.38m85.43-70.45L405,1023.24l22,30.5m-99.76-9.37,32.2-19.12,12-17.5M297,1062.38l30.32-18,13.27-17.94,31-18.68,10.88-15.82m-71.07,52.15,29.23-17.65,12-16.26m29.8-18.24-29.8,18.24-28.23,17.28-13,16.63L297,1062.38m48.74,62.46,30.92-15.69,32.78-16.63,9.25-20.35,8.39-18.43M321.67,1094l30.63-16.82,32.5-17.84,10.61-19,9.6-17.16"/></g><path class="cls-3" d="M1458.8,1080a178.68,178.68,0,0,1-15.77-72.91C1443,862.9,1621.66,746,1842,746a607.17,607.17,0,0,1,77.88,5"/><circle class="cls-4" cx="1560.92" cy="859.71" r="4.55"/><circle class="cls-4" cx="1574.93" cy="859.71" r="4.55"/><circle class="cls-4" cx="1591.51" cy="859.71" r="4.55"/><g id="_1" data-name="1"><path class="cls-4" d="M1423.92,958.87l1.7-1.77a2.77,2.77,0,0,1,2-.85h32.61c7.53,0,11.2-2.83,11.2-8,0-4.64-4.44-5.22-11.78-5.22h-17.38c-9.59,0-14.16-3.47-14.16-9.72,0-8.75,6-14.29,19.57-14.29h30.42a1.91,1.91,0,0,1,1.39,3.22l-1.78,1.91a2.5,2.5,0,0,1-1.83.8h-29.74c-7.47,0-11.2,2.76-11.2,7.91,0,4.44,4.37,5,11.78,5h17.44c9.27,0,14,3.22,14,9.6,0,9.07-5.73,14.61-19.5,14.61h-33.37A1.92,1.92,0,0,1,1423.92,958.87Z"/><path class="cls-4" d="M1480,968.52c.38-3.12.44-4.69,1.81-5.59a16.48,16.48,0,0,1,4.61-.82c-2.72-.34-4.29-.41-5.23-1.24-.79-1-.88-2.52-1.19-5.18h0c-.29,2.36-.38,3.86-1,4.83-.92,1.2-2.52,1.31-5.46,1.59,2.89.35,4.46.42,5.38,1.52.69,1,.81,2.49,1,4.89"/></g></svg>